<?xml version="1.0" encoding="utf-8"?>
<!-- Svg Vector Icons : http://www.onlinewebfonts.com/icon -->
<!DOCTYPE svg PUBLIC "-//W3C//DTD SVG 1.1//EN" "http://www.w3.org/Graphics/SVG/1.1/DTD/svg11.dtd">
<svg version="1.1" xmlns="http://www.w3.org/2000/svg" xmlns:xlink="http://www.w3.org/1999/xlink" x="0px" y="0px" viewBox="0 0 1000 1000" enable-background="new 0 0 1000 1000" xml:space="preserve">
<metadata> Svg Vector Icons : http://www.onlinewebfonts.com/icon </metadata>
<g><path d="M475.5,34.5v877.1C384.8,816,198.6,629.8,198.6,629.8c-9.8-9.8-24.5-9.8-34.3,0c-9.8,9.8-9.8,24.5,0,34.3l318.5,318.5c2.5,2.4,4.9,4.9,7.4,4.9c2.5,2.5,7.3,2.5,9.8,2.5l0,0l0,0c2.4,0,7.4,0,9.8-2.5c2.4,0,4.9-2.4,7.3-4.9l0,0l318.5-318.5c4.9-4.9,7.4-12.2,7.4-17.1c0-4.9-2.5-12.3-7.4-17.2c-9.8-9.8-24.5-9.8-34.3,0L524.5,906.7V34.5c0-14.7-9.8-24.5-24.5-24.5S475.5,19.8,475.5,34.5L475.5,34.5z"/></g>
</svg>